<?xml version="1.0" encoding="UTF-8" standalone="no"?>
<!-- Created with Inkscape (http://www.inkscape.org/) -->

<svg
   xmlns:dc="http://purl.org/dc/elements/1.1/"
   xmlns:cc="http://creativecommons.org/ns#"
   xmlns:rdf="http://www.w3.org/1999/02/22-rdf-syntax-ns#"
   xmlns:svg="http://www.w3.org/2000/svg"
   xmlns="http://www.w3.org/2000/svg"
   xmlns:sodipodi="http://sodipodi.sourceforge.net/DTD/sodipodi-0.dtd"
   xmlns:inkscape="http://www.inkscape.org/namespaces/inkscape"
   width="87.611038mm"
   height="55.23827mm"
   viewBox="0 0 310.43281 195.72615"
   id="svg3344"
   version="1.1"
   inkscape:version="0.91 r13725"
   sodipodi:docname="icon.svg">
  <defs
     id="defs3346" />
  <sodipodi:namedview
     id="base"
     pagecolor="#ffffff"
     bordercolor="#666666"
     borderopacity="1.0"
     inkscape:pageopacity="0.0"
     inkscape:pageshadow="2"
     inkscape:zoom="0.5"
     inkscape:cx="-137.82941"
     inkscape:cy="-41.611115"
     inkscape:document-units="px"
     inkscape:current-layer="layer1"
     showgrid="false"
     showguides="true"
     inkscape:guide-bbox="true"
     fit-margin-top="0"
     fit-margin-left="0"
     fit-margin-right="0"
     fit-margin-bottom="0"
     inkscape:window-width="1061"
     inkscape:window-height="944"
     inkscape:window-x="65"
     inkscape:window-y="61"
     inkscape:window-maximized="0" />
  <metadata
     id="metadata3349">
    <rdf:RDF>
      <cc:Work
         rdf:about="">
        <dc:format>image/svg+xml</dc:format>
        <dc:type
           rdf:resource="http://purl.org/dc/dcmitype/StillImage" />
        <dc:title></dc:title>
      </cc:Work>
    </rdf:RDF>
  </metadata>
  <g
     inkscape:label="Layer 1"
     inkscape:groupmode="layer"
     id="layer1"
     transform="translate(-149.43107,-151.80051)">
    <path
       style="fill:none;fill-rule:evenodd;stroke:#000000;stroke-width:1px;stroke-linecap:butt;stroke-linejoin:miter;stroke-opacity:1"
       d="m 149.93107,152.30051 147.79926,0 -99.62515,101.91539 99.62515,92.33247 -65.84337,-0.96419 -50.8961,-65.05364 -0.24105,65.53574 -30.81874,-0.24105 z"
       id="path3374"
       inkscape:connector-curvature="0"
       sodipodi:nodetypes="ccccccccc" />
    <path
       style="fill:none;fill-rule:evenodd;stroke:#000000;stroke-width:1px;stroke-linecap:butt;stroke-linejoin:miter;stroke-opacity:1"
       d="m 181.24098,231.11596 49.65563,-53.75343 -49.65563,0 z"
       id="path3378"
       inkscape:connector-curvature="0" />
    <path
       style="fill:none;fill-rule:evenodd;stroke:#000000;stroke-width:1px;stroke-linecap:butt;stroke-linejoin:miter;stroke-opacity:1"
       d="m 443.28245,161.44191 6.77506,-9.1414 -152.32718,0 -99.31788,101.57257 99.31788,92.74047 152.32718,-0.75934 -4.83933,-7.29289"
       id="path3388"
       inkscape:connector-curvature="0"
       sodipodi:nodetypes="ccccccc" />
    <path
       style="fill:none;fill-rule:evenodd;stroke:#000000;stroke-width:1px;stroke-linecap:butt;stroke-linejoin:miter;stroke-opacity:1"
       d="m 198.89638,253.87308 168.89255,0"
       id="path3390"
       inkscape:connector-curvature="0" />
    <path
       style="fill:none;fill-rule:evenodd;stroke:#000000;stroke-width:1px;stroke-linecap:butt;stroke-linejoin:miter;stroke-opacity:1"
       d="m 208.0911,253.87308 c 0,0 89.63923,-41.13429 89.63923,-91.4633"
       id="path3394"
       inkscape:connector-curvature="0" />
    <path
       inkscape:connector-curvature="0"
       id="path3396"
       d="m 369.72466,252.90521 c 0,0 89.63923,-41.13429 89.63923,-91.4633"
       style="fill:none;fill-rule:evenodd;stroke:#000000;stroke-width:1px;stroke-linecap:butt;stroke-linejoin:miter;stroke-opacity:1" />
    <path
       style="fill:none;fill-rule:evenodd;stroke:#000000;stroke-width:0.92832774px;stroke-linecap:butt;stroke-linejoin:miter;stroke-opacity:1"
       d="m 368.25776,253.32673 c 0,0 83.3986,38.10185 83.3986,84.72058"
       id="path3398"
       inkscape:connector-curvature="0" />
    <path
       inkscape:connector-curvature="0"
       id="path3400"
       d="m 208.5651,253.82198 c 0,0 89.65904,38.31035 89.65904,85.18418"
       style="fill:none;fill-rule:evenodd;stroke:#000000;stroke-width:0.96517044px;stroke-linecap:butt;stroke-linejoin:miter;stroke-opacity:1" />
    <path
       style="fill:none;fill-rule:evenodd;stroke:#000000;stroke-width:1px;stroke-linecap:butt;stroke-linejoin:miter;stroke-opacity:1"
       d="m 297.61867,162.89371 162.11749,-0.96786"
       id="path3402"
       inkscape:connector-curvature="0" />
    <path
       style="fill:none;fill-rule:evenodd;stroke:#000000;stroke-width:1px;stroke-linecap:butt;stroke-linejoin:miter;stroke-opacity:1"
       d="m 298.58654,338.56132 152.92276,0"
       id="path3404"
       inkscape:connector-curvature="0" />
    <path
       inkscape:connector-curvature="0"
       id="path3406"
       d="m 206.0911,253.87308 c 0,0 89.63923,-41.13429 89.63923,-91.4633"
       style="fill:none;fill-rule:evenodd;stroke:#000000;stroke-width:1px;stroke-linecap:butt;stroke-linejoin:miter;stroke-opacity:0.29559751" />
    <path
       style="fill:none;fill-rule:evenodd;stroke:#000000;stroke-width:1px;stroke-linecap:butt;stroke-linejoin:miter;stroke-opacity:0.29559751"
       d="m 204.0911,253.87308 c 0,0 89.63923,-41.13429 89.63923,-91.4633"
       id="path4208"
       inkscape:connector-curvature="0" />
    <path
       inkscape:connector-curvature="0"
       id="path4210"
       d="m 202.0911,253.87308 c 0,0 89.63923,-41.13429 89.63923,-91.4633"
       style="fill:none;fill-rule:evenodd;stroke:#000000;stroke-width:1px;stroke-linecap:butt;stroke-linejoin:miter;stroke-opacity:0.29559751" />
    <path
       style="fill:none;fill-rule:evenodd;stroke:#000000;stroke-width:1px;stroke-linecap:butt;stroke-linejoin:miter;stroke-opacity:0.29559751"
       d="m 200.0911,253.87308 c 0,0 89.63923,-41.13429 89.63923,-91.4633"
       id="path4212"
       inkscape:connector-curvature="0" />
    <path
       inkscape:connector-curvature="0"
       id="path4214"
       d="m 198.09185,254.35537 c 0,0 89.63774,-41.35153 89.63774,-91.94634"
       style="fill:none;fill-rule:evenodd;stroke:#000000;stroke-width:1.0026288px;stroke-linecap:butt;stroke-linejoin:miter;stroke-opacity:0.29559751" />
    <path
       style="fill:none;fill-rule:evenodd;stroke:#000000;stroke-width:0.96517044px;stroke-linecap:butt;stroke-linejoin:miter;stroke-opacity:0.29411765"
       d="m 206.5651,253.82198 c 0,0 89.65904,38.31035 89.65904,85.18418"
       id="path4216"
       inkscape:connector-curvature="0" />
    <path
       inkscape:connector-curvature="0"
       id="path4218"
       d="m 204.5651,253.82198 c 0,0 89.65904,38.31035 89.65904,85.18418"
       style="fill:none;fill-rule:evenodd;stroke:#000000;stroke-width:0.96517044px;stroke-linecap:butt;stroke-linejoin:miter;stroke-opacity:0.29411765" />
    <path
       style="fill:none;fill-rule:evenodd;stroke:#000000;stroke-width:0.96517044px;stroke-linecap:butt;stroke-linejoin:miter;stroke-opacity:0.29411765"
       d="m 202.5651,253.82198 c 0,0 89.65904,38.31035 89.65904,85.18418"
       id="path4220"
       inkscape:connector-curvature="0" />
    <path
       inkscape:connector-curvature="0"
       id="path4222"
       d="m 200.5651,253.82198 c 0,0 89.65904,38.31035 89.65904,85.18418"
       style="fill:none;fill-rule:evenodd;stroke:#000000;stroke-width:0.96517044px;stroke-linecap:butt;stroke-linejoin:miter;stroke-opacity:0.29411765" />
    <path
       style="fill:none;fill-rule:evenodd;stroke:#000000;stroke-width:0.96517044px;stroke-linecap:butt;stroke-linejoin:miter;stroke-opacity:0.29411765"
       d="m 198.5651,253.82198 c 0,0 89.65904,38.31035 89.65904,85.18418"
       id="path4224"
       inkscape:connector-curvature="0" />
    <path
       style="fill:none;fill-rule:evenodd;stroke:#000000;stroke-width:5.85678434;stroke-linecap:round;stroke-linejoin:miter;stroke-miterlimit:4;stroke-dasharray:none;stroke-opacity:0.29559751"
       d="m 262.39557,248.66059 c 0,0 58.40513,-33.83684 58.40513,-75.2372"
       id="path4228"
       inkscape:connector-curvature="0" />
    <path
       inkscape:connector-curvature="0"
       id="path4230"
       d="m 293.7082,247.99232 c 0,0 47.38749,-33.67108 47.38749,-74.86863"
       style="fill:none;fill-rule:evenodd;stroke:#000000;stroke-width:5.26258612;stroke-linecap:round;stroke-linejoin:miter;stroke-miterlimit:4;stroke-dasharray:none;stroke-opacity:0.29559751" />
    <path
       style="fill:none;fill-rule:evenodd;stroke:#000000;stroke-width:5.26258612;stroke-linecap:round;stroke-linejoin:miter;stroke-miterlimit:4;stroke-dasharray:none;stroke-opacity:0.29559751"
       d="m 317.7082,247.99232 c 0,0 47.38749,-33.67108 47.38749,-74.86863"
       id="path4232"
       inkscape:connector-curvature="0" />
    <path
       inkscape:connector-curvature="0"
       id="path4234"
       d="m 341.7082,247.99232 c 0,0 47.38749,-33.67108 47.38749,-74.86863"
       style="fill:none;fill-rule:evenodd;stroke:#000000;stroke-width:5.26258612;stroke-linecap:round;stroke-linejoin:miter;stroke-miterlimit:4;stroke-dasharray:none;stroke-opacity:0.29559751" />
    <path
       style="fill:none;fill-rule:evenodd;stroke:#000000;stroke-width:5.26258612;stroke-linecap:round;stroke-linejoin:miter;stroke-miterlimit:4;stroke-dasharray:none;stroke-opacity:0.29559751"
       d="m 367.7082,247.99232 c 0,0 47.38749,-33.67108 47.38749,-74.86863"
       id="path4236"
       inkscape:connector-curvature="0" />
    <path
       inkscape:connector-curvature="0"
       id="path4306"
       d="m 260.39557,258.44189 c 0,0 58.40513,33.83684 58.40513,75.2372"
       style="fill:none;fill-rule:evenodd;stroke:#000000;stroke-width:5.85678434;stroke-linecap:round;stroke-linejoin:miter;stroke-miterlimit:4;stroke-dasharray:none;stroke-opacity:0.29559751" />
    <path
       style="fill:none;fill-rule:evenodd;stroke:#000000;stroke-width:5.26258612;stroke-linecap:round;stroke-linejoin:miter;stroke-miterlimit:4;stroke-dasharray:none;stroke-opacity:0.29559751"
       d="m 291.7082,259.11016 c 0,0 47.38749,33.67108 47.38749,74.86863"
       id="path4308"
       inkscape:connector-curvature="0" />
    <path
       inkscape:connector-curvature="0"
       id="path4310"
       d="m 315.7082,259.11016 c 0,0 47.38749,33.67108 47.38749,74.86863"
       style="fill:none;fill-rule:evenodd;stroke:#000000;stroke-width:5.26258612;stroke-linecap:round;stroke-linejoin:miter;stroke-miterlimit:4;stroke-dasharray:none;stroke-opacity:0.29559751" />
    <path
       style="fill:none;fill-rule:evenodd;stroke:#000000;stroke-width:5.26258612;stroke-linecap:round;stroke-linejoin:miter;stroke-miterlimit:4;stroke-dasharray:none;stroke-opacity:0.29559751"
       d="m 339.7082,259.11016 c 0,0 47.38749,33.67108 47.38749,74.86863"
       id="path4312"
       inkscape:connector-curvature="0" />
    <path
       inkscape:connector-curvature="0"
       id="path4314"
       d="m 365.7082,259.11016 c 0,0 47.38749,33.67108 47.38749,74.86863"
       style="fill:none;fill-rule:evenodd;stroke:#000000;stroke-width:5.26258612;stroke-linecap:round;stroke-linejoin:miter;stroke-miterlimit:4;stroke-dasharray:none;stroke-opacity:0.29559751" />
    <path
       style="fill:#03a9f4;fill-opacity:1;stroke:#000000;stroke-width:2.56000447;stroke-linecap:round;stroke-miterlimit:4;stroke-dasharray:none;stroke-opacity:0.29411765"
       d="m 252.95456,345.22121 c -16.81323,-0.25672 -20.57975,-0.43579 -21.11628,-1.00396 -0.35915,-0.38033 -12.05658,-15.27883 -25.99428,-33.10778 l -25.34127,-32.41627 -0.12432,33.26315 -0.12432,33.26316 -14.75662,0 -14.75661,0 0,-96.06066 0,-96.06066 72.38809,0 72.38809,0 -1.61292,1.88489 c -0.8871,1.03669 -22.95435,23.6934 -49.03833,50.34823 -26.08398,26.65484 -47.42542,48.64808 -47.42542,48.87387 0,0.22578 19.94858,18.90045 44.33017,41.49925 24.38159,22.59881 45.50526,42.19294 46.94148,43.54252 1.43623,1.34957 3.59128,3.34894 4.78902,4.44303 l 2.17769,1.98926 -11.13045,-0.0728 c -6.12175,-0.04 -20.33893,-0.2134 -31.59372,-0.38524 z m -45.29944,-141.5605 c 12.74714,-13.84514 23.47549,-25.55026 23.84079,-26.01139 0.62826,-0.79309 -0.72589,-0.83842 -25.04353,-0.83842 l -25.70769,0 0,27.94 0,27.94 1.86691,-1.92862 c 1.0268,-1.06073 12.29638,-13.25644 25.04352,-27.10157 z"
       id="path4332"
       inkscape:connector-curvature="0" />
    <path
       style="fill:#0288d1;fill-opacity:1;stroke:#000000;stroke-width:2.56000447;stroke-linecap:round;stroke-miterlimit:4;stroke-dasharray:none;stroke-opacity:0.29411765"
       d="m 208.78228,244.4405 c 3.74673,-3.79282 21.25114,-21.70438 38.89868,-39.80347 17.64755,-18.09909 33.71188,-34.5407 35.69851,-36.53693 l 3.61205,-3.62949 -0.318,3.02564 c -0.7105,6.75986 -3.47945,14.43634 -7.90633,21.91906 -9.31958,15.75279 -28.88765,33.71908 -53.39095,49.02054 -7.19911,4.4956 -22.12152,12.9007 -22.90389,12.9007 -0.27626,0 2.56321,-3.10322 6.30993,-6.89605 z"
       id="path4336"
       inkscape:connector-curvature="0" />
    <path
       style="fill:none;fill-rule:evenodd;stroke:#000000;stroke-width:1px;stroke-linecap:butt;stroke-linejoin:miter;stroke-opacity:0.29411765"
       d="m 287.52697,162.83367 10.09467,0.0855"
       id="path4344"
       inkscape:connector-curvature="0" />
    <path
       style="fill:none;fill-rule:evenodd;stroke:#000000;stroke-width:1px;stroke-linecap:butt;stroke-linejoin:miter;stroke-opacity:0.29411765"
       d="m 289.94318,338.60084 7.875,0"
       id="path4348"
       inkscape:connector-curvature="0" />
    <path
       style="fill:#0288d1;fill-opacity:1;stroke:#000000;stroke-width:1.87029743;stroke-linecap:round;stroke-miterlimit:4;stroke-dasharray:none;stroke-opacity:0.29411765"
       d="m 244.61598,296.08423 c -23.46745,-21.90999 -42.61619,-39.88826 -42.55275,-39.9517 0.17532,-0.17532 11.53983,5.57079 17.61439,8.90617 28.81591,15.82206 50.05211,33.43456 60.40254,50.09558 2.27707,3.66537 4.21722,7.75591 5.40437,11.39432 0.91876,2.81581 2.11647,8.49972 1.91224,9.07472 -0.062,0.17449 -19.31333,-17.6091 -42.78079,-39.51909 z"
       id="path4350"
       inkscape:connector-curvature="0" />
    <path
       style="fill:#0288d1;fill-opacity:1;stroke:#000000;stroke-width:1.87029743;stroke-linecap:round;stroke-miterlimit:4;stroke-dasharray:none;stroke-opacity:0.29411765"
       d="m 289.22863,162.1373 c 0,-0.1707 2.03109,-2.33694 4.51354,-4.81388 l 4.51354,-4.50353 75.22929,0.0892 75.22929,0.0892 -3.06641,4.10882 -3.06642,4.10882 -19.31238,0.22076 c -10.62181,0.12143 -37.29057,0.30158 -59.26391,0.40035 -21.97335,0.0988 -47.78716,0.27656 -57.36404,0.39509 -9.92078,0.12279 -17.4125,0.082 -17.4125,-0.0948 z"
       id="path4352"
       inkscape:connector-curvature="0" />
    <path
       style="fill:#0288d1;fill-opacity:1;stroke:#000000;stroke-width:3.74059486;stroke-linecap:round;stroke-miterlimit:4;stroke-dasharray:none;stroke-opacity:0.29411765"
       d="m 294.6915,342.47354 -3.42716,-3.15391 76.69553,0 76.69553,0 1.79546,2.71312 1.79546,2.71312 -44.59805,0.46886 c -24.52893,0.25788 -58.30765,0.45623 -75.06382,0.44079 l -30.46578,-0.0281 -3.42717,-3.1539 z"
       id="path4358"
       inkscape:connector-curvature="0" />
    <path
       style="fill:#b3e5fc;fill-opacity:1;stroke:#000000;stroke-width:3.74059486;stroke-linecap:round;stroke-miterlimit:4;stroke-dasharray:none;stroke-opacity:0.29411765"
       d="m 249.4782,343.59294 c -11.17894,-0.25535 -16.98952,-0.64804 -17.32411,-1.1708 -0.2769,-0.43262 -12.27678,-15.80483 -26.66641,-34.16045 l -26.16295,-33.37387 -0.1835,34.33723 -0.1835,34.33722 -13.42831,0 -13.4283,0 0,-94.39875 0,-94.39876 70.08898,0 70.08898,0 -23.59671,24.13235 c -48.02582,49.116 -66.57403,68.24101 -69.78738,71.95763 l -3.2963,3.81254 4.67028,4.31919 c 26.22728,24.25564 91.13219,84.80161 91.13219,85.01185 0,0.31561 -17.96348,0.14191 -41.92296,-0.40538 z M 200.01248,213.98496 c 31.70138,-34.37345 32.68071,-35.47403 32.68998,-36.73752 0.0138,-1.88066 -2.63036,-2.04734 -28.98254,-1.827 l -24.39519,0.20397 -0.18445,29.87526 c -0.11302,18.30636 0.073,29.87527 0.48028,29.87527 0.36559,0 9.54196,-9.62549 20.39192,-21.38998 z"
       id="path4360"
       inkscape:connector-curvature="0" />
  </g>
</svg>
